# xmcd CD database file
#
# Track frame offsets:
#	150
#	14478
#	29156
#	42908
#	63285
#	89334
#	101974
#	120487
#	134162
#	153749
#	163608
#	178441
#
# Disc length: 2574 seconds
#
# Revision: 0
# Processed by: cddbd v1.5.2PL0 Copyright (c) Steve Scherf et al.
# Submitted via: CDex 1.70beta2
#
DISCID=b20a0c0c
DTITLE=Michel and Nicolas Gilliet feat. John Boutté - Friends
DYEAR=1998
DGENRE=Jazz
TTITLE0=My Romance
TTITLE1=That's my desire
TTITLE2=When my dreamboat comes home
TTITLE3=The way you look tonight
TTITLE4=All the way
TTITLE5=Shake, Rattle and Roll
TTITLE6=Betsy
TTITLE7=Isn't she lovely
TTITLE8=But not for me
TTITLE9=Go down to New Orleans
TTITLE10=Fly me to the moon
TTITLE11=Straighten up and fly right
EXTD=YEAR: 1998
EXTT0=
EXTT1=
EXTT2=
EXTT3=
EXTT4=
EXTT5=
EXTT6=
EXTT7=
EXTT8=
EXTT9=
EXTT10=
EXTT11=
PLAYORDER=
